<?xml version="1.0" standalone="no"?>
<!DOCTYPE svg PUBLIC "-//W3C//DTD SVG 20010904//EN"
 "http://www.w3.org/TR/2001/REC-SVG-20010904/DTD/svg10.dtd">
<svg version="1.0" xmlns="http://www.w3.org/2000/svg"
 width="472.000000pt" height="472.000000pt" viewBox="0 0 472.000000 472.000000"
 preserveAspectRatio="xMidYMid meet">
<metadata>
Created by potrace 1.14, written by Peter Selinger 2001-2017
</metadata>
<g transform="translate(0.000000,472.000000) scale(0.100000,-0.100000)"
fill="#000000" stroke="none">
<path d="M2075 4615 c-209 -24 -440 -81 -614 -151 -137 -55 -400 -200 -502
-276 -176 -133 -361 -311 -472 -455 -115 -149 -247 -383 -311 -548 -45 -119
-101 -334 -120 -465 -8 -58 -18 -125 -22 -150 -10 -70 -8 -294 5 -405 21 -193
84 -452 146 -604 57 -138 198 -385 292 -510 151 -201 383 -412 598 -543 474
-290 955 -406 1485 -357 114 10 293 39 373 59 287 74 628 239 836 407 31 24
71 56 90 71 93 75 192 165 203 185 6 12 35 46 64 75 66 67 201 268 292 435 71
130 151 345 187 502 107 467 49 1025 -150 1430 -110 225 -201 363 -353 538
-127 147 -360 340 -519 431 -311 180 -554 268 -868 317 -171 27 -475 33 -640
14z m415 -1385 c3 -245 6 -439 8 -433 4 23 132 151 176 177 82 48 163 69 271
69 251 0 395 -115 452 -363 15 -66 18 -134 18 -565 l0 -490 -112 -3 -113 -3 0
445 c0 344 -3 461 -14 519 -33 172 -122 261 -275 274 -173 14 -315 -84 -389
-271 -14 -35 -17 -104 -22 -501 l-5 -460 -110 0 -110 0 -3 1015 c-1 558 0
1021 3 1028 3 9 32 12 112 10 l108 -3 5 -445z m-701 403 c58 -43 77 -131 41
-191 -32 -52 -76 -74 -138 -69 -46 3 -59 9 -90 41 -34 34 -37 41 -37 95 0 69
21 105 76 134 42 22 110 18 148 -10z m18 -1395 c-3 -758 -3 -775 -25 -855 -61
-232 -199 -379 -387 -414 -71 -13 -194 -7 -250 12 l-40 14 -3 104 c-3 96 -1
103 15 96 84 -37 132 -47 196 -42 152 10 236 115 267 332 6 41 10 369 10 798
l0 727 110 0 111 0 -4 -772z"/>
</g>
</svg>
