<?xml version="1.0" standalone="no"?>
<!DOCTYPE svg PUBLIC "-//W3C//DTD SVG 20010904//EN"
 "http://www.w3.org/TR/2001/REC-SVG-20010904/DTD/svg10.dtd">
<svg version="1.0" xmlns="http://www.w3.org/2000/svg"
 width="462.000000pt" height="462.000000pt" viewBox="0 0 462.000000 462.000000"
 preserveAspectRatio="xMidYMid meet">
<metadata>
Created by potrace 1.14, written by Peter Selinger 2001-2017
</metadata>
<g transform="translate(0.000000,462.000000) scale(0.100000,-0.100000)"
fill="#000000" stroke="none">
<path d="M2040 4486 c-553 -66 -1039 -311 -1412 -713 -668 -721 -755 -1795
-210 -2609 371 -554 961 -907 1637 -980 635 -68 1259 129 1740 549 611 534
869 1357 666 2132 -221 844 -936 1473 -1831 1610 -145 22 -446 28 -590 11z
m391 -1338 c0 -409 1 -432 17 -408 39 58 127 140 181 169 190 101 440 75 565
-59 55 -58 81 -110 108 -208 20 -72 21 -109 26 -559 l4 -483 -110 0 -111 0 -3
458 c-3 439 -4 460 -25 522 -31 91 -72 143 -141 177 -49 24 -69 28 -142 28
-71 0 -94 -4 -142 -27 -108 -50 -193 -166 -218 -297 -6 -31 -10 -225 -10 -457
l0 -404 -105 0 -105 0 0 990 0 990 105 0 105 0 1 -432z m-683 392 c94 -57 94
-183 0 -240 -90 -54 -208 12 -208 116 0 110 116 180 208 124z m30 -1347 c-3
-738 -4 -749 -26 -828 -63 -225 -193 -362 -377 -396 -74 -14 -186 -6 -242 16
l-43 17 0 98 0 98 58 -23 c81 -33 122 -39 185 -25 106 22 172 96 211 235 19
66 20 111 24 813 l3 742 105 0 105 0 -3 -747z"/>
</g>
</svg>
